<svg width="261" height="372" viewBox="0 0 261 372" fill="none" xmlns="http://www.w3.org/2000/svg">
<path fill-rule="evenodd" clip-rule="evenodd" d="M112.039 45.675H10C4.47715 45.675 0 50.1521 0 55.675V361.925C0 367.448 4.47715 371.925 10 371.925H251C256.523 371.925 261 367.448 261 361.925V55.675C261 50.1521 256.523 45.675 251 45.675H148.961C146.274 53.433 139.023 58.9913 130.5 58.9913C121.977 58.9913 114.726 53.433 112.039 45.675Z" fill="url(#paint0_linear_2_66)"/>
<rect x="26.1" y="78.3" width="208.8" height="254.475" rx="10" fill="#FFF1E1"/>
<path fill-rule="evenodd" clip-rule="evenodd" d="M202.275 45.675L176.175 45.675C176.175 20.4494 155.726 0 130.5 0C105.274 0 84.825 20.4494 84.825 45.675L58.725 45.675V78.3C58.725 92.7146 70.4104 104.4 84.825 104.4H176.175C190.59 104.4 202.275 92.7146 202.275 78.3V45.675ZM130.5 58.725C141.311 58.725 150.075 49.961 150.075 39.15C150.075 28.339 141.311 19.575 130.5 19.575C119.689 19.575 110.925 28.339 110.925 39.15C110.925 49.961 119.689 58.725 130.5 58.725Z" fill="url(#paint1_linear_2_66)"/>
<path d="M191.826 257.593V209.801C191.826 176.347 164.454 148.975 131 148.975C97.5459 148.975 70.1742 176.347 70.1742 209.801V257.592H191.826V257.593Z" fill="#FF9900"/>
<path d="M172.275 257.593V221.271C172.275 195.846 153.701 175.043 131 175.043C108.299 175.043 89.7253 195.846 89.7253 221.271V257.593H172.275Z" fill="#60DD4D"/>
<path d="M146.207 257.593V216.558C146.207 216.248 146.201 215.938 146.192 215.63C145.595 196.273 116.406 196.273 115.808 215.63C115.799 215.938 115.794 216.248 115.794 216.558V257.593H146.207Z" fill="#5B64B1"/>
<path d="M200.515 257.593H187.481V211.973C187.481 196.956 181.587 182.792 170.884 172.089C160.181 161.387 146.018 155.492 131 155.492C115.982 155.492 101.818 161.386 91.1157 172.089C80.4132 182.792 74.519 196.956 74.519 211.973V257.593H61.4847V211.973C61.4847 193.475 68.7346 176.037 81.899 162.873C95.0634 149.708 112.502 142.458 131 142.458C149.498 142.458 166.936 149.708 180.101 162.873C193.265 176.037 200.515 193.475 200.515 211.973L200.515 257.593Z" fill="#FF318F"/>
<path d="M175.316 257.593H162.282V211.973C162.282 194.724 148.249 180.692 131 180.692C113.751 180.692 99.7183 194.724 99.7183 211.973V257.593H86.684V211.973C86.684 187.538 106.564 167.657 131 167.657C155.436 167.657 175.316 187.537 175.316 211.973V257.593Z" fill="#FFDB2D"/>
<path d="M150.117 257.593H137.082V211.973C137.082 208.619 134.354 205.891 131 205.891C127.646 205.891 124.917 208.619 124.917 211.973V257.593H111.883V211.973C111.883 201.432 120.459 192.857 131 192.857C141.541 192.857 150.117 201.432 150.117 211.973V257.593Z" fill="#4BBAED"/>
<path d="M116.099 241.796C116.1 241.722 116.1 241.648 116.1 241.574C116.1 231.314 107.753 222.966 97.4926 222.966C96.9826 222.966 96.4741 222.988 95.9686 223.029C91.9287 214.984 83.7009 209.801 74.4534 209.801C61.1686 209.801 50.3604 220.609 50.3604 233.894C50.3604 234.147 50.3641 234.399 50.372 234.651C41.4571 237.026 35 245.106 35 254.739C35 266.21 44.3319 275.541 55.802 275.541H109.562C119.217 275.541 127.072 267.686 127.072 258.031C127.072 250.793 122.574 244.419 116.099 241.796Z" fill="#B7E4F8"/>
<path d="M116.099 241.796C116.1 241.722 116.1 241.648 116.1 241.574C116.1 231.314 107.753 222.967 97.4926 222.967C96.9826 222.967 96.4741 222.988 95.9686 223.029C92.9214 216.96 87.4895 212.522 81.0358 210.707V275.542H109.561C119.216 275.542 127.072 267.686 127.072 258.031C127.072 250.793 122.575 244.419 116.099 241.796Z" fill="#93D6F4"/>
<path d="M180.101 162.873C166.936 149.708 149.498 142.458 131 142.458V155.493C146.017 155.493 160.182 161.387 170.884 172.09C181.587 182.792 187.481 196.957 187.481 211.974V257.593H200.515V211.973C200.515 193.475 193.265 176.037 180.101 162.873Z" fill="#BF256B"/>
<path d="M211.628 234.651C211.636 234.399 211.64 234.147 211.64 233.894C211.64 220.609 200.831 209.801 187.547 209.801C178.299 209.801 170.07 214.984 166.031 223.029C165.525 222.988 165.017 222.967 164.507 222.967C154.247 222.967 145.9 231.314 145.9 241.574C145.9 241.648 145.9 241.722 145.901 241.796C139.426 244.42 134.928 250.793 134.928 258.031C134.928 267.686 142.783 275.542 152.438 275.542H206.198C217.668 275.542 227 266.21 227 254.74C227 245.106 220.543 237.026 211.628 234.651Z" fill="#4BBAED"/>
<path d="M145.901 241.796C145.9 241.722 145.9 241.648 145.9 241.574C145.9 231.314 154.247 222.967 164.507 222.967C165.017 222.967 165.526 222.988 166.031 223.029C170.071 214.984 178.299 209.801 187.547 209.801C200.831 209.801 211.64 220.609 211.64 233.894C211.64 234.147 211.636 234.399 211.628 234.651C220.543 237.026 227 245.106 227 254.74C227 266.21 217.668 275.542 206.198 275.542H152.438C142.783 275.542 134.928 267.687 134.928 258.031C134.928 250.793 139.426 244.419 145.901 241.796Z" fill="#B8E4F7"/>
<path d="M211.628 234.651C211.636 234.399 211.64 234.147 211.64 233.894C211.64 220.609 200.831 209.801 187.547 209.801C185.275 209.801 183.066 210.116 180.964 210.707V275.542H206.198C217.668 275.542 227 266.21 227 254.74C227 245.106 220.543 237.026 211.628 234.651Z" fill="#93D6F4"/>
<defs>
<linearGradient id="paint0_linear_2_66" x1="130.5" y1="45.675" x2="130.5" y2="371.925" gradientUnits="userSpaceOnUse">
<stop stop-color="#FFAD6B"/>
<stop offset="1" stop-color="#FF8E67"/>
</linearGradient>
<linearGradient id="paint1_linear_2_66" x1="130.5" y1="0" x2="130.5" y2="104.4" gradientUnits="userSpaceOnUse">
<stop stop-color="#AAAAAA"/>
<stop offset="1" stop-color="#848484"/>
</linearGradient>
</defs>
</svg>
